<svg width="152" height="142" viewBox="0 0 152 142" fill="none" xmlns="http://www.w3.org/2000/svg">
<path fill-rule="evenodd" clip-rule="evenodd" d="M73.4549 87.7172C70.4843 87.8031 67.5669 87.9649 64.7153 88.1976C64.9708 89.0819 65.1078 90.0167 65.1078 90.9834C65.1078 91.0476 65.1072 91.1117 65.1059 91.1757C67.8285 90.9561 70.6152 90.802 73.4549 90.7184V87.7172ZM85.9756 90.8109C89.7065 90.9768 93.3379 91.2645 96.8437 91.6627C96.9046 90.6284 97.1292 89.6381 97.492 88.7174C93.7759 88.2877 89.9271 87.9806 85.9756 87.808V90.8109ZM45.0756 91.1236C45.0897 92.1573 45.2605 93.1532 45.5652 94.0885C40.4779 95.2399 35.8361 96.6469 31.7567 98.2586C25.8458 100.594 21.2652 103.3 18.2124 106.151C15.1643 108.998 13.8513 111.773 13.8513 114.356C13.8513 116.939 15.1643 119.714 18.2124 122.561C21.2652 125.412 25.8458 128.118 31.7567 130.453C43.5607 135.116 60.0728 138.067 78.4632 138.067C96.8536 138.067 113.366 135.116 125.17 130.453C131.081 128.118 135.661 125.412 138.714 122.561C141.762 119.714 143.075 116.939 143.075 114.356C143.075 111.773 141.762 108.998 138.714 106.151C135.661 103.3 131.081 100.594 125.17 98.2586C122.248 97.1042 119.037 96.0549 115.581 95.1292C115.87 94.2161 116.025 93.2439 116.025 92.2354C116.025 92.2045 116.025 92.1737 116.025 92.1428C134.145 96.9345 146.075 105.095 146.075 114.356C146.075 129.108 115.804 141.067 78.4632 141.067C41.1222 141.067 10.8513 129.108 10.8513 114.356C10.8513 104.401 24.6359 95.7181 45.0756 91.1236Z" fill="black"/>
<rect x="77.6287" y="69.2813" width="4.17357" height="53.4217" fill="black"/>
<path d="M101.516 120.011C102.179 120.109 102.67 120.679 102.67 121.35C102.67 122.097 102.064 122.703 101.317 122.703L58.9473 122.703C58.2007 122.703 57.5955 122.098 57.5955 121.351C57.5955 120.68 58.0879 120.111 58.752 120.014L78.454 117.137C79.7116 116.953 80.9893 116.955 82.2463 117.142L101.516 120.011Z" fill="black"/>
<path d="M79.7606 70.1987L45.5019 20.4315L114.019 20.4315L79.7606 70.1987Z" stroke="black" stroke-width="4"/>
<path d="M81.6541 61.6421C80.8531 62.7839 79.1586 62.7758 78.3686 61.6264L60.9736 36.318C59.9804 34.8731 61.195 32.9405 62.9278 33.2087L74.1641 34.948C74.3864 34.9824 74.613 34.9791 74.8342 34.9381L88 32.5L99.0025 31.0803C100.727 30.8579 101.894 32.7893 100.896 34.2124L81.6541 61.6421Z" fill="black"/>
<path d="M132.29 37.5621L119.655 54.1727C117.322 57.2406 116.308 61.1123 116.838 64.9302V64.9302C117.368 68.7481 116.354 72.6198 114.02 75.6877L92.6833 103.739C91.8108 104.886 92.0334 106.524 93.1805 107.396V107.396C94.3276 108.269 95.9648 108.046 96.8373 106.899L118.184 78.8338C120.512 75.7736 123.96 73.7635 127.77 73.2455V73.2455C131.58 72.7276 135.028 70.7174 137.355 67.6572L150 51.0331" stroke="black" stroke-width="3"/>
<path d="M124.373 59.3569L137.141 42.5704" stroke="black" stroke-width="3"/>
<path d="M130.803 63.948L143.571 47.1616" stroke="black" stroke-width="3"/>
<path d="M67.3448 102.849L43.1595 72.8527C40.422 69.4575 39.1643 65.1043 39.6692 60.7722C39.8122 59.545 39.8148 58.3055 39.6769 57.0778L39.4258 54.8413C39.1875 52.7196 38.5619 50.6597 37.58 48.7639C36.5029 46.6845 35.0183 44.8431 33.2146 43.3496C31.5701 41.988 29.6897 40.9397 27.6669 40.257L26.7828 39.9586C24.8004 39.2895 22.6952 39.0637 20.616 39.2971L19.3881 39.435C17.4883 39.6484 15.6887 40.399 14.2005 41.5989C12.7122 42.7989 11.597 44.3983 10.9857 46.2097L10.5905 47.3804C9.9214 49.3628 9.69561 51.4679 9.92909 53.5472L10.0123 54.2885C10.2642 56.5313 10.9498 58.7162 12.0204 60.7031C13.0598 62.632 14.4526 64.3631 16.1172 65.7879C17.8444 67.2662 19.839 68.3996 21.9931 69.1266L24.2544 69.8898C25.2071 70.2114 26.1855 70.4513 27.179 70.6069C31.4434 71.2747 35.3173 73.4764 38.0733 76.7984L62.7815 106.581C63.8107 107.822 65.6454 108.006 66.9002 106.994C68.1675 105.972 68.3666 104.117 67.3448 102.849Z" stroke="black" stroke-width="3"/>
<path d="M31.2463 64.9164V64.9164C22.7886 66.9044 14.6878 60.4869 14.6878 51.7987L14.6878 48.358" stroke="black" stroke-width="2"/>
</svg>
