<svg width="82" height="77" viewBox="0 0 82 77" fill="none" xmlns="http://www.w3.org/2000/svg">
<path d="M1.68 25.68H3.57V18.54C3.57 16.244 4.06 14.55 5.04 13.458C6.02 12.366 7.392 11.82 9.156 11.82C10.052 11.82 10.808 12.002 11.424 12.366C12.068 12.702 12.544 13.08 12.852 13.5L11.004 16.272C10.724 15.796 10.388 15.502 9.996 15.39C9.632 15.25 9.282 15.18 8.946 15.18C8.33 15.18 7.84 15.46 7.476 16.02C7.112 16.58 6.93 17.56 6.93 18.96V25.68H11.34V28.83H6.93V45H3.57V28.83H1.68V25.68ZM13.4876 35.34C13.4876 33.38 13.9216 31.644 14.7896 30.132C15.6856 28.62 16.8896 27.43 18.4016 26.562C19.9136 25.694 21.6076 25.26 23.4836 25.26C25.3876 25.26 27.0816 25.694 28.5656 26.562C30.0776 27.43 31.2676 28.62 32.1356 30.132C33.0316 31.644 33.4796 33.38 33.4796 35.34C33.4796 37.272 33.0316 39.008 32.1356 40.548C31.2676 42.06 30.0776 43.25 28.5656 44.118C27.0816 44.986 25.3876 45.42 23.4836 45.42C21.6076 45.42 19.9136 44.986 18.4016 44.118C16.8896 43.25 15.6856 42.06 14.7896 40.548C13.9216 39.008 13.4876 37.272 13.4876 35.34ZM16.8896 35.34C16.8896 36.684 17.1696 37.874 17.7296 38.91C18.3176 39.946 19.1016 40.772 20.0816 41.388C21.0896 41.976 22.2236 42.27 23.4836 42.27C24.7436 42.27 25.8636 41.976 26.8436 41.388C27.8516 40.772 28.6356 39.946 29.1956 38.91C29.7836 37.874 30.0776 36.684 30.0776 35.34C30.0776 33.996 29.7836 32.806 29.1956 31.77C28.6356 30.706 27.8516 29.88 26.8436 29.292C25.8636 28.704 24.7436 28.41 23.4836 28.41C22.2236 28.41 21.0896 28.704 20.0816 29.292C19.1016 29.88 18.3176 30.706 17.7296 31.77C17.1696 32.806 16.8896 33.996 16.8896 35.34ZM36.4153 35.34C36.4153 33.38 36.8493 31.644 37.7173 30.132C38.6133 28.62 39.8173 27.43 41.3293 26.562C42.8413 25.694 44.5353 25.26 46.4113 25.26C48.3153 25.26 50.0093 25.694 51.4933 26.562C53.0053 27.43 54.1953 28.62 55.0633 30.132C55.9593 31.644 56.4073 33.38 56.4073 35.34C56.4073 37.272 55.9593 39.008 55.0633 40.548C54.1953 42.06 53.0053 43.25 51.4933 44.118C50.0093 44.986 48.3153 45.42 46.4113 45.42C44.5353 45.42 42.8413 44.986 41.3293 44.118C39.8173 43.25 38.6133 42.06 37.7173 40.548C36.8493 39.008 36.4153 37.272 36.4153 35.34ZM39.8173 35.34C39.8173 36.684 40.0973 37.874 40.6573 38.91C41.2453 39.946 42.0293 40.772 43.0093 41.388C44.0173 41.976 45.1513 42.27 46.4113 42.27C47.6713 42.27 48.7913 41.976 49.7713 41.388C50.7793 40.772 51.5633 39.946 52.1233 38.91C52.7113 37.874 53.0053 36.684 53.0053 35.34C53.0053 33.996 52.7113 32.806 52.1233 31.77C51.5633 30.706 50.7793 29.88 49.7713 29.292C48.7913 28.704 47.6713 28.41 46.4113 28.41C45.1513 28.41 44.0173 28.704 43.0093 29.292C42.0293 29.88 41.2453 30.706 40.6573 31.77C40.0973 32.806 39.8173 33.996 39.8173 35.34ZM59.343 35.34C59.343 33.24 59.777 31.448 60.645 29.964C61.513 28.452 62.675 27.29 64.131 26.478C65.587 25.666 67.183 25.26 68.919 25.26C70.347 25.26 71.621 25.582 72.741 26.226C73.889 26.87 74.813 27.794 75.513 28.998V12.24H78.873V45H75.513V41.682C74.813 42.886 73.889 43.81 72.741 44.454C71.621 45.098 70.347 45.42 68.919 45.42C67.183 45.42 65.587 45.014 64.131 44.202C62.675 43.39 61.513 42.228 60.645 40.716C59.777 39.204 59.343 37.412 59.343 35.34ZM62.745 35.34C62.745 36.824 63.039 38.084 63.627 39.12C64.243 40.156 65.055 40.94 66.063 41.472C67.071 42.004 68.163 42.27 69.339 42.27C70.319 42.27 71.285 42.004 72.237 41.472C73.189 40.94 73.973 40.156 74.589 39.12C75.205 38.084 75.513 36.824 75.513 35.34C75.513 33.856 75.205 32.596 74.589 31.56C73.973 30.524 73.189 29.74 72.237 29.208C71.285 28.676 70.319 28.41 69.339 28.41C68.163 28.41 67.071 28.676 66.063 29.208C65.055 29.74 64.243 30.524 63.627 31.56C63.039 32.596 62.745 33.856 62.745 35.34Z" fill="black"/>
<path d="M23.265 54.43V64H20.625V54.76C20.625 53.462 20.383 52.505 19.899 51.889C19.437 51.273 18.711 50.965 17.721 50.965C16.643 50.965 15.785 51.306 15.147 51.988C14.509 52.648 14.19 53.572 14.19 54.76V64H11.55V54.76C11.55 53.462 11.308 52.505 10.824 51.889C10.362 51.273 9.636 50.965 8.646 50.965C7.568 50.965 6.71 51.306 6.072 51.988C5.434 52.648 5.115 53.572 5.115 54.76V64H2.475V48.82H5.115V51.031C6.017 49.337 7.414 48.49 9.306 48.49C10.362 48.49 11.264 48.743 12.012 49.249C12.782 49.733 13.343 50.426 13.695 51.328C14.751 49.436 16.313 48.49 18.381 48.49C19.943 48.49 21.142 49.007 21.978 50.041C22.836 51.075 23.265 52.538 23.265 54.43ZM26.904 56.41C26.904 54.87 27.245 53.506 27.927 52.318C28.631 51.13 29.577 50.195 30.765 49.513C31.953 48.831 33.284 48.49 34.758 48.49C36.254 48.49 37.585 48.831 38.751 49.513C39.939 50.195 40.874 51.13 41.556 52.318C42.26 53.506 42.612 54.87 42.612 56.41C42.612 57.928 42.26 59.292 41.556 60.502C40.874 61.69 39.939 62.625 38.751 63.307C37.585 63.989 36.254 64.33 34.758 64.33C33.284 64.33 31.953 63.989 30.765 63.307C29.577 62.625 28.631 61.69 27.927 60.502C27.245 59.292 26.904 57.928 26.904 56.41ZM29.577 56.41C29.577 57.466 29.797 58.401 30.237 59.215C30.699 60.029 31.315 60.678 32.085 61.162C32.877 61.624 33.768 61.855 34.758 61.855C35.748 61.855 36.628 61.624 37.398 61.162C38.19 60.678 38.806 60.029 39.246 59.215C39.708 58.401 39.939 57.466 39.939 56.41C39.939 55.354 39.708 54.419 39.246 53.605C38.806 52.769 38.19 52.12 37.398 51.658C36.628 51.196 35.748 50.965 34.758 50.965C33.768 50.965 32.877 51.196 32.085 51.658C31.315 52.12 30.699 52.769 30.237 53.605C29.797 54.419 29.577 55.354 29.577 56.41ZM44.9187 56.41C44.9187 54.87 45.2597 53.506 45.9417 52.318C46.6457 51.13 47.5917 50.195 48.7797 49.513C49.9677 48.831 51.2987 48.49 52.7727 48.49C54.2687 48.49 55.5997 48.831 56.7657 49.513C57.9537 50.195 58.8887 51.13 59.5707 52.318C60.2747 53.506 60.6267 54.87 60.6267 56.41C60.6267 57.928 60.2747 59.292 59.5707 60.502C58.8887 61.69 57.9537 62.625 56.7657 63.307C55.5997 63.989 54.2687 64.33 52.7727 64.33C51.2987 64.33 49.9677 63.989 48.7797 63.307C47.5917 62.625 46.6457 61.69 45.9417 60.502C45.2597 59.292 44.9187 57.928 44.9187 56.41ZM47.5917 56.41C47.5917 57.466 47.8117 58.401 48.2517 59.215C48.7137 60.029 49.3297 60.678 50.0997 61.162C50.8917 61.624 51.7827 61.855 52.7727 61.855C53.7627 61.855 54.6427 61.624 55.4127 61.162C56.2047 60.678 56.8207 60.029 57.2607 59.215C57.7227 58.401 57.9537 57.466 57.9537 56.41C57.9537 55.354 57.7227 54.419 57.2607 53.605C56.8207 52.769 56.2047 52.12 55.4127 51.658C54.6427 51.196 53.7627 50.965 52.7727 50.965C51.7827 50.965 50.8917 51.196 50.0997 51.658C49.3297 52.12 48.7137 52.769 48.2517 53.605C47.8117 54.419 47.5917 55.354 47.5917 56.41ZM62.9333 56.41C62.9333 54.76 63.2743 53.352 63.9563 52.186C64.6383 50.998 65.5513 50.085 66.6953 49.447C67.8393 48.809 69.0933 48.49 70.4573 48.49C71.5793 48.49 72.5803 48.743 73.4603 49.249C74.3623 49.755 75.0883 50.481 75.6383 51.427V38.26H78.2783V64H75.6383V61.393C75.0883 62.339 74.3623 63.065 73.4603 63.571C72.5803 64.077 71.5793 64.33 70.4573 64.33C69.0933 64.33 67.8393 64.011 66.6953 63.373C65.5513 62.735 64.6383 61.822 63.9563 60.634C63.2743 59.446 62.9333 58.038 62.9333 56.41ZM65.6063 56.41C65.6063 57.576 65.8373 58.566 66.2993 59.38C66.7833 60.194 67.4213 60.81 68.2133 61.228C69.0053 61.646 69.8633 61.855 70.7873 61.855C71.5573 61.855 72.3163 61.646 73.0643 61.228C73.8123 60.81 74.4283 60.194 74.9123 59.38C75.3963 58.566 75.6383 57.576 75.6383 56.41C75.6383 55.244 75.3963 54.254 74.9123 53.44C74.4283 52.626 73.8123 52.01 73.0643 51.592C72.3163 51.174 71.5573 50.965 70.7873 50.965C69.8633 50.965 69.0053 51.174 68.2133 51.592C67.4213 52.01 66.7833 52.626 66.2993 53.44C65.8373 54.254 65.6063 55.244 65.6063 56.41Z" fill="black"/>
</svg>
